<svg width="176" height="132" viewBox="0 0 176 132" fill="none" xmlns="http://www.w3.org/2000/svg">
<path d="M161.333 0H14.6667C6.67333 0.293333 0.293333 6.67333 0 14.6667V117.333C0.293333 125.327 6.67333 131.707 14.6667 132H161.333C169.327 131.707 175.707 125.327 176 117.333V14.6667C175.865 10.8198 174.276 7.16718 171.555 4.44536C168.833 1.72353 165.18 0.134973 161.333 0ZM161.333 117.333H14.6667V14.6667H161.333V117.333ZM102.667 102.667V93.5C102.667 81.3267 78.1733 75.1667 66 75.1667C53.8267 75.1667 29.3333 81.3267 29.3333 93.5V102.667H102.667ZM66 29.3333C61.1377 29.3333 56.4745 31.2649 53.0364 34.703C49.5982 38.1412 47.6667 42.8044 47.6667 47.6667C47.6667 50.0742 48.1409 52.4582 49.0622 54.6825C49.9835 56.9068 51.334 58.9279 53.0364 60.6303C56.4745 64.0685 61.1377 66 66 66C68.4076 66 70.7916 65.5258 73.0159 64.6045C75.2402 63.6831 77.2612 62.3327 78.9636 60.6303C80.666 58.9279 82.0165 56.9068 82.9378 54.6825C83.8591 52.4582 84.3333 50.0742 84.3333 47.6667C84.3333 45.2591 83.8591 42.8751 82.9378 40.6508C82.0165 38.4265 80.666 36.4055 78.9636 34.703C77.2612 33.0006 75.2402 31.6502 73.0159 30.7289C70.7916 29.8075 68.4076 29.3333 66 29.3333ZM102.667 29.3333V36.6667H146.667V29.3333H102.667ZM102.667 44V51.3333H146.667V44H102.667ZM102.667 58.6667V66H132V58.6667H102.667Z" fill="#F3F3F3"/>
</svg>
